<svg width="54" height="55" viewBox="0 0 54 55" fill="none" xmlns="http://www.w3.org/2000/svg">
<path d="M46.2383 46.2383C42.5322 49.9444 37.8104 52.4683 32.6699 53.4908C27.5294 54.5133 22.2011 53.9885 17.3589 51.9828C12.5166 49.9771 8.37791 46.5805 5.46606 42.2226C2.5542 37.8647 1 32.7412 1 27.5C1 22.2588 2.5542 17.1353 5.46605 12.7774C8.37791 8.41949 12.5166 5.02292 17.3589 3.01719C22.2011 1.01147 27.5294 0.486682 32.6699 1.50919C37.8104 2.5317 42.5322 5.05558 46.2383 8.76167" stroke="#222222"/>
<path d="M19 27.5L18.6077 27.19L18.3628 27.5L18.6077 27.81L19 27.5ZM51 28C51.2761 28 51.5 27.7761 51.5 27.5C51.5 27.2239 51.2761 27 51 27V28ZM29.2743 13.69L18.6077 27.19L19.3923 27.81L30.059 14.31L29.2743 13.69ZM18.6077 27.81L29.2743 41.31L30.059 40.69L19.3923 27.19L18.6077 27.81ZM19 28H51V27H19V28Z" fill="#222222"/>
</svg>
