<svg width="54" height="55" viewBox="0 0 54 55" fill="none" xmlns="http://www.w3.org/2000/svg">
<path d="M7.76167 46.2383C11.4678 49.9444 16.1896 52.4683 21.3301 53.4908C26.4706 54.5133 31.7989 53.9885 36.6411 51.9828C41.4834 49.9771 45.6221 46.5805 48.5339 42.2226C51.4458 37.8647 53 32.7412 53 27.5C53 22.2588 51.4458 17.1353 48.5339 12.7774C45.6221 8.41949 41.4834 5.02292 36.6411 3.01719C31.7989 1.01147 26.4706 0.486682 21.3301 1.50919C16.1896 2.5317 11.4678 5.05558 7.76167 8.76167" stroke="#222222"/>
<path d="M35 27.5L35.3923 27.19L35.6372 27.5L35.3923 27.81L35 27.5ZM3 28C2.72386 28 2.5 27.7761 2.5 27.5C2.5 27.2239 2.72386 27 3 27V28ZM24.7257 13.69L35.3923 27.19L34.6077 27.81L23.941 14.31L24.7257 13.69ZM35.3923 27.81L24.7257 41.31L23.941 40.69L34.6077 27.19L35.3923 27.81ZM35 28H3V27H35V28Z" fill="#222222"/>
</svg>
